# Rhino

mtllib CUBO.mtl
usemtl diffuse_Black
v 16.099767684936523 0 -111.04340362548828
v 16.099767684936523 19.769660949707031 -111.04340362548828
v 56.717300415039063 0 -111.04340362548828
v 56.717300415039063 19.769660949707031 -111.04340362548828
v 56.717300415039063 0 -111.04340362548828
v 56.717300415039063 19.769660949707031 -111.04340362548828
v 56.717300415039063 0 -146.21224975585938
v 56.717300415039063 19.769660949707031 -146.21224975585938
v 56.717300415039063 0 -146.21224975585938
v 56.717300415039063 19.769660949707031 -146.21224975585938
v 16.099767684936523 0 -146.21224975585938
v 16.099767684936523 19.769660949707031 -146.21224975585938
v 16.099767684936523 0 -146.21224975585938
v 16.099767684936523 19.769660949707031 -146.21224975585938
v 16.099767684936523 0 -111.04340362548828
v 16.099767684936523 19.769660949707031 -111.04340362548828
v 16.099767684936523 0 -111.04340362548828
v 56.717300415039063 0 -111.04340362548828
v 56.717300415039063 0 -146.21224975585938
v 16.099767684936523 0 -146.21224975585938
v 16.099767684936523 19.769660949707031 -111.04340362548828
v 56.717300415039063 19.769660949707031 -111.04340362548828
v 56.717300415039063 19.769660949707031 -146.21224975585938
v 16.099767684936523 19.769660949707031 -146.21224975585938
vt 0 0
vt 0 0.60970026254653931
vt 0.26797387003898621 0
vt 0.26797387003898621 0.60970026254653931
vt 0.26797387003898621 0
vt 0.26797387003898621 0.60970026254653931
vt 0.5 0
vt 0.5 0.60970026254653931
vt 0.5 0
vt 0.5 0.60970026254653931
vt 0.76797384023666382 0
vt 0.76797384023666382 0.60970026254653931
vt 0.76797384023666382 0
vt 0.76797384023666382 0.60970026254653931
vt 1 0
vt 1 0.60970026254653931
vt 0 1
vt 0.26797387003898621 1
vt 0.26797387003898621 0.60970085859298706
vt 0 0.60970085859298706
vt 0.73202615976333618 0.60970085859298706
vt 1 0.60970085859298706
vt 1 1
vt 0.73202615976333618 1
vn 0 0 1
vn 0 0 1
vn 0 0 1
vn 0 0 1
vn 1 0 0
vn 1 0 0
vn 1 0 0
vn 1 0 0
vn 0 0 -1
vn 0 0 -1
vn 0 0 -1
vn 0 0 -1
vn -1 0 0
vn -1 0 0
vn -1 0 0
vn -1 0 0
vn 0 -1 0
vn 0 -1 0
vn 0 -1 0
vn 0 -1 0
vn 0 1 0
vn 0 1 0
vn 0 1 0
vn 0 1 0
f 1/1/1 3/3/3 4/4/4 2/2/2
f 5/5/5 7/7/7 8/8/8 6/6/6
f 9/9/9 11/11/11 12/12/12 10/10/10
f 13/13/13 15/15/15 16/16/16 14/14/14
f 18/18/18 17/17/17 20/20/20
f 20/20/20 19/19/19 18/18/18
f 22/22/22 24/24/24 21/21/21
f 24/24/24 22/22/22 23/23/23
