# Alias OBJ Model File
# Exported from SketchUp, (c) 2000-2012 Trimble Navigation Limited
# File units = inches

mtllib solido.mtl

g Mesh1 Group1 Model

usemtl FrontColor
v -17.1562 0 -28.25
vt 0 56.5
vn 0 -1 -0
v 17.1562 0 -28.25
vt -34.3125 56.5
v 17.1562 0 28.25
vt -34.3125 0
v -17.1562 0 28.25
vt 0 0
f 1/1/1 2/2/1 3/3/1 4/4/1 

vn 0 0 -1
v -17.1562 8 -28.25
vt 0 8
v 17.1562 8 -28.25
vt -34.3125 8
f 2/3/2 1/4/2 5/5/2 6/6/2 

vt -56.5 0
vn -1 0 -0
v -17.1562 8 28.25
vt -56.5 8
f 1/7/3 4/4/3 7/5/3 5/8/3 

vn 0 0 1
vt 34.3125 0
v 17.1562 8 28.25
vt 34.3125 8
f 4/4/4 3/9/4 8/10/4 7/5/4 

vn 1 0 -0
vt 56.5 0
vt 56.5 8
f 3/4/5 2/11/5 6/12/5 8/5/5 

vt 34.3125 56.5
vn 0 1 -0
f 6/13/6 5/1/6 7/4/6 8/9/6 

